<svg xmlns="http://www.w3.org/2000/svg" viewBox="0 0 512 512"><rect width="512" height="512" fill="#8c2f1b"/><circle cx="256" cy="256" r="140" fill="none" stroke="#e9b949" stroke-width="16.8"/>
<circle cx="256" cy="256" r="30.8" fill="none" stroke="#e9b949" stroke-width="12.6"/>
<circle cx="256" cy="256" r="9.8" fill="#e9b949"/>
<line x1="292.4" y1="256.0" x2="387.6" y2="256.0" stroke="#e9b949" stroke-width="10.5" stroke-linecap="round"/>
<circle cx="414.2" cy="256.0" r="11.9" fill="#e9b949"/>
<line x1="281.7" y1="281.7" x2="349.1" y2="349.1" stroke="#e9b949" stroke-width="10.5" stroke-linecap="round"/>
<circle cx="367.9" cy="367.9" r="11.9" fill="#e9b949"/>
<line x1="256.0" y1="292.4" x2="256.0" y2="387.6" stroke="#e9b949" stroke-width="10.5" stroke-linecap="round"/>
<circle cx="256.0" cy="414.2" r="11.9" fill="#e9b949"/>
<line x1="230.3" y1="281.7" x2="162.9" y2="349.1" stroke="#e9b949" stroke-width="10.5" stroke-linecap="round"/>
<circle cx="144.1" cy="367.9" r="11.9" fill="#e9b949"/>
<line x1="219.6" y1="256.0" x2="124.4" y2="256.0" stroke="#e9b949" stroke-width="10.5" stroke-linecap="round"/>
<circle cx="97.8" cy="256.0" r="11.9" fill="#e9b949"/>
<line x1="230.3" y1="230.3" x2="162.9" y2="162.9" stroke="#e9b949" stroke-width="10.5" stroke-linecap="round"/>
<circle cx="144.1" cy="144.1" r="11.9" fill="#e9b949"/>
<line x1="256.0" y1="219.6" x2="256.0" y2="124.4" stroke="#e9b949" stroke-width="10.5" stroke-linecap="round"/>
<circle cx="256.0" cy="97.8" r="11.9" fill="#e9b949"/>
<line x1="281.7" y1="230.3" x2="349.1" y2="162.9" stroke="#e9b949" stroke-width="10.5" stroke-linecap="round"/>
<circle cx="367.9" cy="144.1" r="11.9" fill="#e9b949"/></svg>