<svg xmlns="http://www.w3.org/2000/svg" viewBox="0 0 512 512"><rect width="512" height="512" rx="112" fill="#8c2f1b"/><circle cx="256" cy="256" r="150" fill="none" stroke="#e9b949" stroke-width="18.0"/>
<circle cx="256" cy="256" r="33.0" fill="none" stroke="#e9b949" stroke-width="13.5"/>
<circle cx="256" cy="256" r="10.5" fill="#e9b949"/>
<line x1="295.0" y1="256.0" x2="397.0" y2="256.0" stroke="#e9b949" stroke-width="11.2" stroke-linecap="round"/>
<circle cx="425.5" cy="256.0" r="12.8" fill="#e9b949"/>
<line x1="283.6" y1="283.6" x2="355.7" y2="355.7" stroke="#e9b949" stroke-width="11.2" stroke-linecap="round"/>
<circle cx="375.9" cy="375.9" r="12.8" fill="#e9b949"/>
<line x1="256.0" y1="295.0" x2="256.0" y2="397.0" stroke="#e9b949" stroke-width="11.2" stroke-linecap="round"/>
<circle cx="256.0" cy="425.5" r="12.8" fill="#e9b949"/>
<line x1="228.4" y1="283.6" x2="156.3" y2="355.7" stroke="#e9b949" stroke-width="11.2" stroke-linecap="round"/>
<circle cx="136.1" cy="375.9" r="12.8" fill="#e9b949"/>
<line x1="217.0" y1="256.0" x2="115.0" y2="256.0" stroke="#e9b949" stroke-width="11.2" stroke-linecap="round"/>
<circle cx="86.5" cy="256.0" r="12.8" fill="#e9b949"/>
<line x1="228.4" y1="228.4" x2="156.3" y2="156.3" stroke="#e9b949" stroke-width="11.2" stroke-linecap="round"/>
<circle cx="136.1" cy="136.1" r="12.8" fill="#e9b949"/>
<line x1="256.0" y1="217.0" x2="256.0" y2="115.0" stroke="#e9b949" stroke-width="11.2" stroke-linecap="round"/>
<circle cx="256.0" cy="86.5" r="12.8" fill="#e9b949"/>
<line x1="283.6" y1="228.4" x2="355.7" y2="156.3" stroke="#e9b949" stroke-width="11.2" stroke-linecap="round"/>
<circle cx="375.9" cy="136.1" r="12.8" fill="#e9b949"/></svg>